<svg width="32" height="32" viewBox="0 0 32 32" fill="none" xmlns="http://www.w3.org/2000/svg">
  <defs>
    <linearGradient id="fbg" x1="0" y1="0" x2="32" y2="32" gradientUnits="userSpaceOnUse">
      <stop offset="0" stop-color="#0B1B33"/>
      <stop offset="1" stop-color="#0F2A52"/>
    </linearGradient>
    <linearGradient id="fc" x1="14" y1="6" x2="28" y2="28" gradientUnits="userSpaceOnUse">
      <stop offset="0" stop-color="#36A7FF"/>
      <stop offset="0.55" stop-color="#3DD3F0"/>
      <stop offset="1" stop-color="#86E45F"/>
    </linearGradient>
    <linearGradient id="fi" x1="6" y1="10" x2="12" y2="28" gradientUnits="userSpaceOnUse">
      <stop offset="0" stop-color="#5BB8FF"/>
      <stop offset="1" stop-color="#1F94FF"/>
    </linearGradient>
    <linearGradient id="fl" x1="4" y1="2" x2="14" y2="12" gradientUnits="userSpaceOnUse">
      <stop offset="0" stop-color="#B8F284"/>
      <stop offset="1" stop-color="#52C742"/>
    </linearGradient>
  </defs>
  <rect width="32" height="32" rx="8" fill="url(#fbg)"/>
  <rect x="6" y="11" width="5.5" height="17" rx="2.75" fill="url(#fi)"/>
  <path d="M22 10.5c-3 0-5.5 1.3-6.8 3.5a5 5 0 0 0 0 5.5c1.3 2.2 3.8 3.5 6.8 3.5v-3c-1.6 0-3-.8-3.8-2a2.5 2.5 0 0 1 0-3c.8-1.2 2.2-2 3.8-2Z" fill="url(#fc)"/>
  <path d="M9 3.5c-2 1-2.8 2.6-2.4 4.8.4 2.1 1.6 3.4 3.5 3.8-.2-2-.6-3.6-1.1-4.9-.5-1.4-1-2.6-1.5-3.7Z" fill="url(#fl)"/>
</svg>
