<svg width="64" height="64" viewBox="0 0 64 64" fill="none" xmlns="http://www.w3.org/2000/svg" role="img" aria-label="ICLSET 2026">
	<defs>
		<linearGradient id="fc" x1="28" y1="14" x2="58" y2="56" gradientUnits="userSpaceOnUse">
			<stop offset="0" stop-color="#1F94FF"/>
			<stop offset="0.55" stop-color="#19C8C0"/>
			<stop offset="1" stop-color="#7BD957"/>
		</linearGradient>
		<linearGradient id="fi" x1="10" y1="18" x2="22" y2="58" gradientUnits="userSpaceOnUse">
			<stop offset="0" stop-color="#4FB1FF"/>
			<stop offset="1" stop-color="#1F7BEF"/>
		</linearGradient>
		<linearGradient id="fl" x1="14" y1="4" x2="30" y2="22" gradientUnits="userSpaceOnUse">
			<stop offset="0" stop-color="#A4ED6B"/>
			<stop offset="1" stop-color="#3FB337"/>
		</linearGradient>
	</defs>
	<rect x="11" y="20" width="11" height="38" rx="5.5" fill="url(#fi)"/>
	<path d="M50 22.5c-7 0-13 3.4-15.6 8.5a11 11 0 0 0 0 10c2.6 5.1 8.6 8.5 15.6 8.5v-6.5c-4 0-7.4-1.6-9-4a6.5 6.5 0 0 1 0-6c1.6-2.4 5-4 9-4Z" fill="url(#fc)"/>
	<path d="M16.5 4c-4.6 1.6-7 5.4-6 11 1 5.4 4.4 8.6 9.4 9.4-.6-5.4-1.7-9.6-3-12.6-1.3-3-2.6-5.4-4-7.8Z" fill="url(#fl)"/>
	<path d="M16.5 4c1 3 2.2 6.6 3 10.4 1.2-3 3-5.4 5-7.4" stroke="#FFFFFF" stroke-width="1.4" stroke-linecap="round" opacity="0.8"/>
</svg>
