<svg width="1200" height="630" viewBox="0 0 1200 630" fill="none" xmlns="http://www.w3.org/2000/svg">
	<defs>
		<linearGradient id="ogBg" x1="0" y1="0" x2="1200" y2="630" gradientUnits="userSpaceOnUse">
			<stop offset="0" stop-color="#04101F"/>
			<stop offset="0.55" stop-color="#0B2549"/>
			<stop offset="1" stop-color="#0F3F5F"/>
		</linearGradient>
		<radialGradient id="ogA" cx="220" cy="120" r="420" gradientUnits="userSpaceOnUse">
			<stop offset="0" stop-color="#1F94FF" stop-opacity="0.55"/>
			<stop offset="1" stop-color="#1F94FF" stop-opacity="0"/>
		</radialGradient>
		<radialGradient id="ogB" cx="980" cy="520" r="460" gradientUnits="userSpaceOnUse">
			<stop offset="0" stop-color="#7BD957" stop-opacity="0.5"/>
			<stop offset="1" stop-color="#7BD957" stop-opacity="0"/>
		</radialGradient>
		<linearGradient id="ogTitle" x1="120" y1="200" x2="900" y2="380" gradientUnits="userSpaceOnUse">
			<stop offset="0" stop-color="#FFFFFF"/>
			<stop offset="0.45" stop-color="#3DD3F0"/>
			<stop offset="1" stop-color="#7BD957"/>
		</linearGradient>
		<pattern id="ogGrid" width="56" height="56" patternUnits="userSpaceOnUse">
			<path d="M56 0H0V56" fill="none" stroke="#3DD3F0" stroke-opacity="0.06" stroke-width="1"/>
		</pattern>
		<linearGradient id="ogI" x1="60" y1="120" x2="100" y2="320" gradientUnits="userSpaceOnUse">
			<stop offset="0" stop-color="#4FB1FF"/>
			<stop offset="1" stop-color="#1F7BEF"/>
		</linearGradient>
		<linearGradient id="ogC" x1="170" y1="120" x2="280" y2="340" gradientUnits="userSpaceOnUse">
			<stop offset="0" stop-color="#1F94FF"/>
			<stop offset="0.55" stop-color="#19C8C0"/>
			<stop offset="1" stop-color="#7BD957"/>
		</linearGradient>
		<linearGradient id="ogLeaf" x1="60" y1="60" x2="130" y2="140" gradientUnits="userSpaceOnUse">
			<stop offset="0" stop-color="#A4ED6B"/>
			<stop offset="1" stop-color="#3FB337"/>
		</linearGradient>
	</defs>
	<rect width="1200" height="630" fill="url(#ogBg)"/>
	<rect width="1200" height="630" fill="url(#ogGrid)"/>
	<rect width="1200" height="630" fill="url(#ogA)"/>
	<rect width="1200" height="630" fill="url(#ogB)"/>
	<g transform="translate(96 168)">
		<rect x="40" y="80" width="50" height="180" rx="25" fill="url(#ogI)"/>
		<path d="M268 90c-32 0-60 16-72 38a36 36 0 0 0 0 44c12 22 40 38 72 38v-30c-19 0-35-9-43-22a16 16 0 0 1 0-22c8-13 24-22 43-22Z" fill="url(#ogC)"/>
		<path d="M52 0c-22 8-32 26-28 50 4 22 18 36 38 40-2-20-6-37-12-50-6-13-12-25-18-40Z" fill="url(#ogLeaf)"/>
		<path d="M52 0c4 13 8 28 12 44 4-12 10-22 18-30" stroke="#FFFFFF" stroke-width="3" stroke-linecap="round" opacity="0.85"/>
	</g>
	<g font-family="Geist, Inter, ui-sans-serif, system-ui, sans-serif">
		<text x="500" y="260" font-size="84" font-weight="700" letter-spacing="-0.02em" fill="url(#ogTitle)">ICLSET 2026</text>
		<text x="500" y="312" font-size="24" font-weight="500" letter-spacing="0.22em" fill="#3DD3F0" style="text-transform:uppercase">International Conference</text>
		<text x="500" y="364" font-size="28" font-weight="500" fill="#D4E4FA">Life Sciences and Emerging Technologies</text>
		<line x1="500" y1="402" x2="600" y2="402" stroke="#7BD957" stroke-width="3" stroke-linecap="round"/>
		<text x="500" y="450" font-size="24" font-weight="500" fill="#9CB3D2">Manta, Manabi, Ecuador</text>
		<text x="500" y="486" font-size="24" font-weight="600" fill="#86E45F">15, 16 y 17 de julio de 2026</text>
		<text x="500" y="526" font-size="20" font-weight="500" fill="#8AA0C2">Universidad Laica Eloy Alfaro de Manabi</text>
	</g>
</svg>
