<svg width="256" height="256" viewBox="0 0 256 256" fill="none" xmlns="http://www.w3.org/2000/svg" role="img" aria-labelledby="iclsetIconTitle iclsetIconDesc">
  <title id="iclsetIconTitle">ICLSET 2026</title>
  <desc id="iclsetIconDesc">Marca iC con hoja verde y degradado celeste a verde para biociencia, agrociencia y tecnologia.</desc>
  <defs>
    <linearGradient id="iclsetIconC" x1="138" y1="78" x2="218" y2="208" gradientUnits="userSpaceOnUse">
      <stop offset="0" stop-color="#1F94FF"/>
      <stop offset="0.55" stop-color="#2BC1B6"/>
      <stop offset="1" stop-color="#7BD957"/>
    </linearGradient>
    <linearGradient id="iclsetIconI" x1="60" y1="92" x2="104" y2="216" gradientUnits="userSpaceOnUse">
      <stop offset="0" stop-color="#36A7FF"/>
      <stop offset="1" stop-color="#1B7BEF"/>
    </linearGradient>
    <linearGradient id="iclsetIconLeaf" x1="62" y1="38" x2="120" y2="100" gradientUnits="userSpaceOnUse">
      <stop offset="0" stop-color="#A4ED6B"/>
      <stop offset="1" stop-color="#3FB337"/>
    </linearGradient>
  </defs>
  <rect width="256" height="256" rx="56" fill="#FFFFFF"/>
  <rect x="60" y="92" width="36" height="124" rx="18" fill="url(#iclsetIconI)"/>
  <path d="M198 90c-30 0-54 14-66 36a48 48 0 0 0 0 52c12 22 36 36 66 36v-30c-18 0-33-8-41-22a26 26 0 0 1 0-28c8-14 23-22 41-22Z" fill="url(#iclsetIconC)"/>
  <path d="M88 38c-22 8-32 26-28 50 4 22 18 36 38 40-2-20-6-37-12-50-6-13-12-25-18-40Z" fill="url(#iclsetIconLeaf)"/>
  <path d="M88 38c4 13 8 28 12 44 4-12 10-22 18-30" stroke="#FFFFFF" stroke-width="3" stroke-linecap="round" opacity="0.7"/>
  <path d="M88 38c-2 18 0 36 6 56" stroke="#2A8F2C" stroke-width="3" stroke-linecap="round" opacity="0.45"/>
</svg>
