<svg width="640" height="160" viewBox="0 0 640 160" fill="none" xmlns="http://www.w3.org/2000/svg" role="img" aria-labelledby="iclsetLogoLightTitle iclsetLogoLightDesc">
  <title id="iclsetLogoLightTitle">ICLSET 2026 sobre fondo oscuro</title>
  <desc id="iclsetLogoLightDesc">Variante clara del logotipo ICLSET 2026 para usar sobre fondos navy u oscuros.</desc>
  <defs>
    <linearGradient id="logoLightC" x1="92" y1="40" x2="160" y2="146" gradientUnits="userSpaceOnUse">
      <stop offset="0" stop-color="#36A7FF"/>
      <stop offset="0.55" stop-color="#3DD3F0"/>
      <stop offset="1" stop-color="#86E45F"/>
    </linearGradient>
    <linearGradient id="logoLightI" x1="36" y1="50" x2="60" y2="146" gradientUnits="userSpaceOnUse">
      <stop offset="0" stop-color="#5BB8FF"/>
      <stop offset="1" stop-color="#1F94FF"/>
    </linearGradient>
    <linearGradient id="logoLightLeaf" x1="34" y1="6" x2="84" y2="60" gradientUnits="userSpaceOnUse">
      <stop offset="0" stop-color="#B8F284"/>
      <stop offset="1" stop-color="#52C742"/>
    </linearGradient>
  </defs>
  <rect x="36" y="50" width="26" height="96" rx="13" fill="url(#logoLightI)"/>
  <path d="M146 46c-22 0-40 10-49 26a36 36 0 0 0 0 38c9 16 27 26 49 26v-22c-13 0-24-6-30-15a18 18 0 0 1 0-20c6-9 17-15 30-15Z" fill="url(#logoLightC)"/>
  <path d="M56 4c-16 6-23 19-20 36 3 16 13 26 28 29-2-15-5-27-9-37C51 22 46 13 42 2Z" fill="url(#logoLightLeaf)"/>
  <path d="M56 4c3 10 6 21 9 32 3-9 7-16 14-22" stroke="#FFFFFF" stroke-width="2.4" stroke-linecap="round" opacity="0.85"/>
  <g font-family="Geist, Inter, ui-sans-serif, system-ui, sans-serif">
    <text x="200" y="84" font-size="40" font-weight="700" letter-spacing="0.04em" fill="#FFFFFF">ICLSET 2026</text>
    <text x="200" y="116" font-size="16" font-weight="500" letter-spacing="0.12em" fill="#3DD3F0" style="text-transform:uppercase">International Conference</text>
    <text x="200" y="136" font-size="13" font-weight="500" letter-spacing="0.06em" fill="#B8C7DE">Life Sciences and Emerging Technologies</text>
  </g>
</svg>
