<svg width="512" height="512" viewBox="0 0 512 512" fill="none" xmlns="http://www.w3.org/2000/svg">
  <defs>
    <linearGradient id="m512bg" x1="0" y1="0" x2="512" y2="512" gradientUnits="userSpaceOnUse">
      <stop offset="0" stop-color="#0B1B33"/>
      <stop offset="1" stop-color="#103B5C"/>
    </linearGradient>
    <linearGradient id="m512c" x1="240" y1="120" x2="420" y2="420" gradientUnits="userSpaceOnUse">
      <stop offset="0" stop-color="#36A7FF"/>
      <stop offset="0.55" stop-color="#3DD3F0"/>
      <stop offset="1" stop-color="#86E45F"/>
    </linearGradient>
    <linearGradient id="m512i" x1="110" y1="160" x2="170" y2="420" gradientUnits="userSpaceOnUse">
      <stop offset="0" stop-color="#5BB8FF"/>
      <stop offset="1" stop-color="#1F94FF"/>
    </linearGradient>
    <linearGradient id="m512l" x1="110" y1="40" x2="220" y2="160" gradientUnits="userSpaceOnUse">
      <stop offset="0" stop-color="#B8F284"/>
      <stop offset="1" stop-color="#52C742"/>
    </linearGradient>
  </defs>
  <rect width="512" height="512" rx="112" fill="url(#m512bg)"/>
  <rect x="118" y="180" width="60" height="220" rx="30" fill="url(#m512i)"/>
  <path d="M390 174c-50 0-92 22-112 60a82 82 0 0 0 0 88c20 38 62 60 112 60v-52c-30 0-56-12-68-32a44 44 0 0 1 0-48c12-20 38-32 68-32Z" fill="url(#m512c)"/>
  <path d="M128 74c-36 14-52 42-46 82 6 36 30 60 64 66-4-34-12-60-20-84-8-24-16-44-26-64h28Z" fill="url(#m512l)"/>
  <path d="M128 74c8 22 14 46 20 72 6-20 16-36 30-48" stroke="#FFFFFF" stroke-width="5" stroke-linecap="round" opacity="0.85"/>
</svg>
