<svg width="960" height="640" viewBox="0 0 960 640" fill="none" xmlns="http://www.w3.org/2000/svg" role="img" aria-labelledby="title desc">
  <title id="title">Day 2 visual</title>
  <desc id="desc">Biodiversity, agroscience, and open science exchange.</desc>
  <rect width="960" height="640" rx="48" fill="#F7FBF2"/>
  <path d="M0 460c130-72 254-72 371 0 112 69 231 66 357-10 84-51 161-62 232-32v222H0V460Z" fill="#DDF3D0"/>
  <path d="M185 420c-12-112 16-196 83-252 42 77 15 163-83 252Z" fill="#64B95A"/>
  <path d="M230 430c33-105 91-174 173-207 14 91-44 160-173 207Z" fill="#8BD956"/>
  <path d="M198 433c-48-92-51-169-8-232 61 58 64 135 8 232Z" fill="#22B08C"/>
  <path d="M160 432h306" stroke="#08213F" stroke-width="12" stroke-linecap="round"/>
  <circle cx="666" cy="255" r="132" fill="#FFFFFF" stroke="#B8DFCB" stroke-width="8"/>
  <path d="M666 165c-54 40-78 84-72 132 48 7 91-17 130-72-6 56 14 99 59 128 36-38 45-83 28-136" stroke="#168B70" stroke-width="12" stroke-linecap="round" stroke-linejoin="round"/>
  <circle cx="666" cy="255" r="31" fill="#18C8B8"/>
  <path d="M540 430h252" stroke="#1F7BFF" stroke-width="14" stroke-linecap="round"/>
  <path d="M582 475h168" stroke="#93CDEA" stroke-width="14" stroke-linecap="round"/>
  <circle cx="510" cy="182" r="14" fill="#1F7BFF"/>
  <circle cx="821" cy="188" r="14" fill="#86D94C"/>
  <path d="M510 182c82-37 185-35 311 6" stroke="#92D1C7" stroke-width="6" stroke-dasharray="16 18" stroke-linecap="round"/>
</svg>
