<svg width="960" height="640" viewBox="0 0 960 640" fill="none" xmlns="http://www.w3.org/2000/svg" role="img" aria-labelledby="title desc">
  <title id="title">Day 1 visual</title>
  <desc id="desc">Auditorium plenary, technology networks, and scientific opening.</desc>
  <rect width="960" height="640" rx="48" fill="#F4FAFC"/>
  <path d="M0 436c118-56 222-54 318 6 114 72 240 67 379-13 94-54 181-61 263-21v232H0V436Z" fill="#DFF6EE"/>
  <path d="M72 130h430c31 0 56 25 56 56v278H128c-31 0-56-25-56-56V130Z" fill="#08213F"/>
  <path d="M128 187h360v176H128V187Z" fill="#EAF7FF"/>
  <path d="M162 398h312" stroke="#38D6D0" stroke-width="18" stroke-linecap="round"/>
  <path d="M624 157c74 0 134 60 134 134s-60 134-134 134-134-60-134-134 60-134 134-134Z" fill="#FFFFFF" stroke="#B7DDEA" stroke-width="8"/>
  <path d="M624 206v170M539 291h170" stroke="#1F7BFF" stroke-width="10" stroke-linecap="round"/>
  <circle cx="624" cy="291" r="38" fill="#18C8B8"/>
  <circle cx="546" cy="214" r="16" fill="#86D94C"/>
  <circle cx="702" cy="214" r="16" fill="#86D94C"/>
  <circle cx="546" cy="368" r="16" fill="#86D94C"/>
  <circle cx="702" cy="368" r="16" fill="#86D94C"/>
  <path d="M144 227c55-21 92-16 112 16 20 32 59 37 118 16" stroke="#1F7BFF" stroke-width="10" stroke-linecap="round"/>
  <path d="M144 282h258M144 322h174" stroke="#95C9D7" stroke-width="12" stroke-linecap="round"/>
  <path d="M802 173c31 48 46 97 46 147s-15 99-46 147" stroke="#18C8B8" stroke-width="10" stroke-linecap="round"/>
</svg>
