<svg width="480" height="480" viewBox="0 0 480 480" fill="none" xmlns="http://www.w3.org/2000/svg" role="img" aria-labelledby="agroTitle agroDesc">
	<title id="agroTitle">Agrociencias</title>
	<desc id="agroDesc">Brote agricola con sol, gotas y red de sensores para agricultura sostenible.</desc>
	<defs>
		<radialGradient id="agroBg" cx="240" cy="200" r="280" gradientUnits="userSpaceOnUse">
			<stop offset="0" stop-color="#193A1F"/>
			<stop offset="0.6" stop-color="#0F2A18"/>
			<stop offset="1" stop-color="#081B0F"/>
		</radialGradient>
		<linearGradient id="agroLeafA" x1="180" y1="200" x2="240" y2="320" gradientUnits="userSpaceOnUse">
			<stop offset="0" stop-color="#B8F284"/>
			<stop offset="1" stop-color="#3FB337"/>
		</linearGradient>
		<linearGradient id="agroLeafB" x1="240" y1="200" x2="300" y2="320" gradientUnits="userSpaceOnUse">
			<stop offset="0" stop-color="#86E45F"/>
			<stop offset="1" stop-color="#2E9A3D"/>
		</linearGradient>
		<linearGradient id="agroStem" x1="240" y1="220" x2="240" y2="400" gradientUnits="userSpaceOnUse">
			<stop offset="0" stop-color="#7BD957"/>
			<stop offset="1" stop-color="#2A8F2C"/>
		</linearGradient>
		<linearGradient id="agroSoil" x1="80" y1="380" x2="400" y2="450" gradientUnits="userSpaceOnUse">
			<stop offset="0" stop-color="#5A3A1F"/>
			<stop offset="1" stop-color="#3A240F"/>
		</linearGradient>
		<radialGradient id="agroSun" cx="380" cy="100" r="80" gradientUnits="userSpaceOnUse">
			<stop offset="0" stop-color="#FFE08A"/>
			<stop offset="0.6" stop-color="#FFC34A" stop-opacity="0.65"/>
			<stop offset="1" stop-color="#FFC34A" stop-opacity="0"/>
		</radialGradient>
		<pattern id="agroGrid" width="40" height="40" patternUnits="userSpaceOnUse">
			<path d="M40 0H0V40" fill="none" stroke="#86E45F" stroke-opacity="0.07" stroke-width="1"/>
		</pattern>
	</defs>
	<rect width="480" height="480" rx="120" fill="url(#agroBg)"/>
	<rect width="480" height="480" rx="120" fill="url(#agroGrid)"/>
	<circle cx="380" cy="100" r="80" fill="url(#agroSun)"/>
	<circle cx="380" cy="100" r="22" fill="#FFE08A"/>
	<g stroke="#FFC34A" stroke-width="3" stroke-linecap="round" opacity="0.7">
		<line x1="380" y1="40" x2="380" y2="56"/>
		<line x1="380" y1="144" x2="380" y2="160"/>
		<line x1="320" y1="100" x2="336" y2="100"/>
		<line x1="424" y1="100" x2="440" y2="100"/>
		<line x1="338" y1="58" x2="350" y2="70"/>
		<line x1="410" y1="130" x2="422" y2="142"/>
	</g>
	<path d="M40 360 Q 160 330 240 350 T 440 360 L 440 480 L 40 480 Z" fill="url(#agroSoil)"/>
	<path d="M40 380 Q 160 348 240 372 T 440 380" stroke="#6F4A24" stroke-width="2" opacity="0.6" fill="none"/>
	<g>
		<path d="M240 360 Q 232 280 240 220" stroke="url(#agroStem)" stroke-width="10" stroke-linecap="round" fill="none"/>
		<path d="M240 280 Q 180 260 156 220 Q 200 200 240 240 Z" fill="url(#agroLeafA)"/>
		<path d="M240 260 Q 300 240 324 200 Q 280 180 240 220 Z" fill="url(#agroLeafB)"/>
		<path d="M240 230 Q 220 200 215 170 Q 250 175 252 215 Z" fill="url(#agroLeafA)"/>
		<path d="M240 230 Q 260 200 265 170 Q 230 175 228 215 Z" fill="url(#agroLeafB)" opacity="0.85"/>
	</g>
	<g fill="#3DD3F0">
		<path d="M120 200 Q 110 220 100 240 Q 90 220 100 200 Q 110 190 120 200 Z" opacity="0.85"/>
		<path d="M150 130 Q 142 145 134 160 Q 126 145 134 130 Q 142 122 150 130 Z" opacity="0.7"/>
		<circle cx="86" cy="280" r="4"/>
		<circle cx="178" cy="80" r="4"/>
	</g>
	<g stroke="#3DD3F0" stroke-width="1.5" stroke-dasharray="4 6" stroke-linecap="round" opacity="0.4" fill="none">
		<path d="M86 280 Q 160 240 240 220"/>
		<path d="M178 80 Q 210 140 240 220"/>
	</g>
</svg>
