<svg width="480" height="480" viewBox="0 0 480 480" fill="none" xmlns="http://www.w3.org/2000/svg" role="img" aria-labelledby="techTitle techDesc">
	<title id="techTitle">Tecnologias de la Informacion</title>
	<desc id="techDesc">Chip de IA central con circuito y red neuronal sobre fondo tecnologico.</desc>
	<defs>
		<radialGradient id="techBg" cx="240" cy="240" r="240" gradientUnits="userSpaceOnUse">
			<stop offset="0" stop-color="#0E2350"/>
			<stop offset="0.6" stop-color="#0A1A3D"/>
			<stop offset="1" stop-color="#061026"/>
		</radialGradient>
		<linearGradient id="techChip" x1="160" y1="160" x2="320" y2="320" gradientUnits="userSpaceOnUse">
			<stop offset="0" stop-color="#1F94FF"/>
			<stop offset="0.55" stop-color="#3DD3F0"/>
			<stop offset="1" stop-color="#7BD957"/>
		</linearGradient>
		<linearGradient id="techChipBorder" x1="160" y1="160" x2="320" y2="320" gradientUnits="userSpaceOnUse">
			<stop offset="0" stop-color="#4FB1FF"/>
			<stop offset="1" stop-color="#86E45F"/>
		</linearGradient>
		<pattern id="techGrid" width="40" height="40" patternUnits="userSpaceOnUse">
			<path d="M40 0H0V40" fill="none" stroke="#3DD3F0" stroke-opacity="0.08" stroke-width="1"/>
		</pattern>
	</defs>
	<rect width="480" height="480" rx="120" fill="url(#techBg)"/>
	<rect width="480" height="480" rx="120" fill="url(#techGrid)"/>
	<g stroke="url(#techChipBorder)" stroke-width="2" stroke-linecap="round" opacity="0.55" fill="none">
		<path d="M60 240 H160"/>
		<path d="M320 240 H420"/>
		<path d="M240 60 V160"/>
		<path d="M240 320 V420"/>
		<path d="M100 100 L160 160"/>
		<path d="M380 100 L320 160"/>
		<path d="M100 380 L160 320"/>
		<path d="M380 380 L320 320"/>
	</g>
	<g fill="#3DD3F0">
		<circle cx="60" cy="240" r="6"/>
		<circle cx="420" cy="240" r="6"/>
		<circle cx="240" cy="60" r="6"/>
		<circle cx="240" cy="420" r="6"/>
		<circle cx="100" cy="100" r="5" opacity="0.7"/>
		<circle cx="380" cy="100" r="5" opacity="0.7"/>
		<circle cx="100" cy="380" r="5" opacity="0.7"/>
		<circle cx="380" cy="380" r="5" opacity="0.7"/>
	</g>
	<rect x="160" y="160" width="160" height="160" rx="28" fill="url(#techChip)" opacity="0.92"/>
	<rect x="160" y="160" width="160" height="160" rx="28" fill="none" stroke="url(#techChipBorder)" stroke-width="3"/>
	<g stroke="#FFFFFF" stroke-width="2" stroke-linecap="round" opacity="0.55" fill="none">
		<path d="M188 192 H292"/>
		<path d="M188 220 H272"/>
		<path d="M188 248 H292"/>
		<path d="M188 276 H252"/>
	</g>
	<g font-family="Geist Mono, ui-monospace, monospace" fill="#FFFFFF" font-weight="700">
		<text x="240" y="262" font-size="44" text-anchor="middle">AI</text>
	</g>
	<g stroke="#86E45F" stroke-width="2" stroke-linecap="round" opacity="0.7" fill="none">
		<path d="M152 200 H160"/>
		<path d="M152 232 H160"/>
		<path d="M152 264 H160"/>
		<path d="M152 296 H160"/>
		<path d="M320 200 H328"/>
		<path d="M320 232 H328"/>
		<path d="M320 264 H328"/>
		<path d="M320 296 H328"/>
		<path d="M200 152 V160"/>
		<path d="M232 152 V160"/>
		<path d="M264 152 V160"/>
		<path d="M200 320 V328"/>
		<path d="M232 320 V328"/>
		<path d="M264 320 V328"/>
	</g>
</svg>
